# Blender v2.76 (sub 0) OBJ File: 'cone.blend'
# www.blender.org
mtllib cone.mtl
o Cone
v 0.000000 0.000000 -1.000000
v 0.000000 1.000000 0.000000
v 0.707107 0.000000 -0.707107
v 1.000000 0.000000 0.000000
v 0.707107 0.000000 0.707107
v -0.000000 0.000000 1.000000
v -0.707107 0.000000 0.707107
v -1.000000 0.000000 -0.000000
v -0.707107 0.000000 -0.707107
vt 0.000000 0.000000
vt 1.000000 0.000000
vt 1.000000 1.000000
vt 0.500000 1.000000
vt 0.853553 0.853553
vt 1.000000 0.500000
vt 0.853553 0.146447
vt 0.500000 0.000000
vt 0.146447 0.146447
vt 0.000000 0.500000
vt 0.146447 0.853553
vn -0.678600 0.678600 -0.281100
vn 0.281100 0.678600 -0.678600
vn -0.678600 0.678600 0.281100
vn -0.281100 0.678600 0.678600
vn 0.281100 0.678600 0.678600
vn 0.678600 0.678600 0.281100
vn -0.281100 0.678600 -0.678600
vn 0.678600 0.678600 -0.281100
vn 0.000000 -1.000000 0.000000
usemtl Material.001
s off
f 8/1/1 2/2/1 9/3/1
f 1/1/2 2/2/2 3/3/2
f 7/1/3 2/2/3 8/3/3
f 6/1/4 2/2/4 7/3/4
f 5/1/5 2/2/5 6/3/5
f 4/1/6 2/2/6 5/3/6
f 9/1/7 2/2/7 1/3/7
f 3/1/8 2/2/8 4/3/8
f 1/4/9 3/5/9 4/6/9 5/7/9 6/8/9 7/9/9 8/10/9 9/11/9
