# Blender v2.76 (sub 0) OBJ File: 'icosahedron.blend'
# www.blender.org
mtllib icosahedron.mtl
o Icosphere
v 0.000000 -0.951243 -0.000000
v 0.688320 -0.425410 0.500088
v -0.262909 -0.425410 0.809166
v -0.850816 -0.425410 -0.000000
v -0.262909 -0.425410 -0.809166
v 0.688320 -0.425410 -0.500088
v 0.262909 0.425410 0.809166
v -0.688320 0.425410 0.500088
v -0.688320 0.425410 -0.500088
v 0.262909 0.425410 -0.809166
v 0.850816 0.425410 -0.000000
v 0.000000 0.951243 -0.000000
vt 0.000000 0.000000
vt 1.000000 0.000000
vt 1.000000 1.000000
vn 0.187600 -0.794700 0.577400
vn 0.607100 -0.794700 0.000000
vn -0.491100 -0.794700 0.356800
vn -0.491100 -0.794700 -0.356800
vn 0.187600 -0.794700 -0.577400
vn 0.982200 -0.187600 0.000000
vn 0.303500 -0.187600 0.934200
vn -0.794600 -0.187600 0.577400
vn -0.794600 -0.187600 -0.577400
vn 0.303500 -0.187600 -0.934200
vn 0.794600 0.187600 0.577400
vn -0.303500 0.187600 0.934200
vn -0.982200 0.187600 0.000000
vn -0.303500 0.187600 -0.934200
vn 0.794600 0.187600 -0.577400
vn 0.491100 0.794700 0.356800
vn -0.187600 0.794700 0.577400
vn -0.607100 0.794700 0.000000
vn -0.187600 0.794700 -0.577400
vn 0.491100 0.794700 -0.356800
usemtl Material.001
s off
f 1/1/1 2/2/1 3/3/1
f 2/1/2 1/2/2 6/3/2
f 1/1/3 3/2/3 4/3/3
f 1/1/4 4/2/4 5/3/4
f 1/1/5 5/2/5 6/3/5
f 2/1/6 6/2/6 11/3/6
f 3/1/7 2/2/7 7/3/7
f 4/1/8 3/2/8 8/3/8
f 5/1/9 4/2/9 9/3/9
f 6/1/10 5/2/10 10/3/10
f 2/1/11 11/2/11 7/3/11
f 3/1/12 7/2/12 8/3/12
f 4/1/13 8/2/13 9/3/13
f 5/1/14 9/2/14 10/3/14
f 6/1/15 10/2/15 11/3/15
f 7/1/16 11/2/16 12/3/16
f 8/1/17 7/2/17 12/3/17
f 9/1/18 8/2/18 12/3/18
f 10/1/19 9/2/19 12/3/19
f 11/1/20 10/2/20 12/3/20
