# Blender v2.78 (sub 0) OBJ File: 'plane.blend'
# www.blender.org
mtllib plane.mtl
o Cube_Cube.001
v -20.170271 3.570697 -23.879696
v -54.451370 -2.008586 -25.616184
v -21.018955 4.478815 12.400823
v -53.097137 -2.736929 32.718273
v -19.979757 4.024756 -5.617667
v -10.085136 0.781054 -33.406590
v -10.085136 5.877115 -29.796307
v -12.668955 -1.078708 21.109663
v -12.775770 -0.148827 -12.529925
v -18.720118 1.235113 42.202957
v -61.920135 -2.372757 -2.954967
v 0.000004 -2.008589 98.379738
v -0.000002 -4.943641 -32.766209
v 20.170271 3.570695 -23.879696
v -0.000000 18.375656 -22.118267
v 54.451370 -2.008591 -25.616188
v 21.018955 4.478813 12.400821
v 53.097137 -2.736933 32.718266
v 19.979757 4.024754 -5.617669
v 0.000001 15.818690 15.198574
v -0.000001 8.183534 -33.181557
v 10.085135 0.781053 -33.406590
v -0.000001 1.619947 -36.078484
v 10.085135 5.877114 -29.796307
v 12.668957 -1.078709 21.109663
v 12.775770 -0.148828 -12.529927
v 0.000002 -5.132991 54.664421
v -0.000000 -8.190049 -3.097779
v 0.000003 8.662189 54.697330
v 18.720121 1.235111 42.202957
v 61.920135 -2.372763 -2.954972
vt 0.0000 0.0000
vt 1.0000 0.0000
vt 1.0000 1.0000
vt 0.0000 0.0000
vt 1.0000 0.0000
vt 1.0000 1.0000
vt 0.0000 1.0000
vt 0.0000 0.0000
vt 1.0000 0.0000
vt 1.0000 1.0000
vt 1.0000 0.0000
vt 1.0000 1.0000
vt 0.0000 0.0000
vt 1.0000 0.0000
vt 1.0000 1.0000
vt 0.0000 1.0000
vt 1.0000 0.0000
vt 1.0000 1.0000
vt 0.0000 0.0000
vt 1.0000 0.0000
vt 1.0000 1.0000
vt 0.0000 0.0000
vt 1.0000 0.0000
vt 0.0000 0.0000
vt 1.0000 1.0000
vt 0.0000 0.0000
vt 1.0000 1.0000
vt 0.0000 0.0000
vt 1.0000 1.0000
vt 0.0000 0.0000
vt 1.0000 0.0000
vt 0.0000 1.0000
vt 0.0000 0.0000
vt 1.0000 0.0000
vt 1.0000 1.0000
vt 0.0000 1.0000
vt 0.5000 1.0000
vt 0.9755 0.6545
vt 0.7939 0.0955
vt 0.2061 0.0955
vt 0.0245 0.6545
vt 0.0000 0.0000
vt 0.5000 1.0000
vt 0.9330 0.7500
vt 0.9330 0.2500
vt 0.5000 0.0000
vt 0.0670 0.2500
vt 0.0670 0.7500
vt 1.0000 0.0000
vt 0.0000 0.0000
vt 1.0000 1.0000
vt 1.0000 0.0000
vt 1.0000 1.0000
vt 1.0000 0.0000
vt 0.0000 0.0000
vt 1.0000 0.0000
vt 1.0000 1.0000
vt 0.0000 0.0000
vt 0.0000 1.0000
vt 1.0000 1.0000
vt 1.0000 0.0000
vt 0.0000 0.0000
vt 1.0000 1.0000
vt 0.0000 0.0000
vt 0.5000 1.0000
vt 0.1786 0.8830
vt 0.0076 0.5868
vt 0.0670 0.2500
vt 0.3290 0.0302
vt 0.6710 0.0302
vt 0.9330 0.2500
vt 0.9924 0.5868
vt 0.8214 0.8830
vt 0.0000 0.0000
vt 0.0000 1.0000
vt 0.0000 0.0000
vt 0.0000 1.0000
vt 1.0000 1.0000
vt 0.5000 1.0000
vt 0.0245 0.6545
vt 0.2061 0.0955
vt 0.7939 0.0955
vt 0.9755 0.6545
vt 0.5000 1.0000
vt 0.0670 0.7500
vt 0.0670 0.2500
vt 0.5000 0.0000
vt 0.9330 0.2500
vt 0.9330 0.7500
vt 1.0000 0.0000
vn -0.1274 0.9074 -0.4005
vn -0.5369 0.8436 0.0127
vn -0.4679 0.8716 0.1463
vn -0.3679 0.6839 -0.6300
vn -0.4815 -0.8710 -0.0976
vn -0.5213 0.4933 -0.6963
vn -0.5209 -0.8533 -0.0219
vn -0.4176 -0.9074 0.0480
vn -0.4529 -0.8893 0.0636
vn -0.1952 -0.4419 -0.8756
vn -0.4717 0.7055 -0.5289
vn -0.3204 0.4616 -0.8272
vn -0.1438 0.9835 0.1094
vn -0.1671 0.9859 0.0009
vn -0.4777 0.8534 0.2085
vn 0.0425 -0.9989 -0.0214
vn 0.0358 -0.9992 -0.0179
vn 0.1274 0.9074 -0.4005
vn 0.5369 0.8436 0.0127
vn 0.4679 0.8716 0.1463
vn 0.3679 0.6839 -0.6300
vn 0.4815 -0.8710 -0.0976
vn 0.5213 0.4933 -0.6963
vn 0.5209 -0.8533 -0.0219
vn 0.4176 -0.9074 0.0480
vn 0.4529 -0.8893 0.0636
vn 0.1952 -0.4419 -0.8756
vn -1.0000 0.0000 0.0000
vn 0.4717 0.7055 -0.5289
vn 0.3204 0.4616 -0.8272
vn 0.1438 0.9835 0.1094
vn 0.1671 0.9859 0.0009
vn 0.4777 0.8534 0.2085
vn -0.0425 -0.9989 -0.0214
vn -0.0358 -0.9992 -0.0179
usemtl Material.001
s off
f 1/1/1 6/2/1 2/3/1
f 15/4/2 1/5/2 3/6/2 20/7/2
f 3/8/3 10/9/3 29/10/3 20/7/3
f 15/4/4 21/11/4 7/12/4
f 6/13/5 13/14/5 28/15/5 9/16/5
f 1/1/6 7/17/6 6/18/6
f 9/19/7 28/20/7 8/21/7
f 28/22/8 27/23/8 8/21/8
f 8/24/9 27/23/9 12/25/9
f 13/26/10 6/2/10 23/27/10
f 7/28/11 1/5/11 15/29/11
f 21/30/12 23/31/12 6/18/12 7/32/12
f 4/33/13 12/34/13 10/35/13 3/36/13
f 2/37/14 11/38/14 4/39/14 3/40/14 1/41/14
f 29/42/15 10/9/15 12/25/15
f 9/43/16 8/44/16 4/45/16 11/46/16 2/47/16 6/48/16
f 4/33/17 8/49/17 12/25/17
f 14/50/18 16/51/18 22/52/18
f 15/4/19 20/7/19 17/53/19 14/54/19
f 17/55/20 20/7/20 29/10/20 30/56/20
f 15/4/21 24/57/21 21/11/21
f 22/58/22 26/59/22 28/15/22 13/14/22
f 14/50/23 22/60/23 24/61/23
f 26/62/24 25/63/24 28/20/24
f 28/22/25 25/63/25 27/23/25
f 25/64/26 12/25/26 27/23/26
f 13/26/27 23/27/27 22/52/27
f 21/65/28 23/66/28 13/67/28 28/68/28 27/69/28 12/70/28 29/71/28 20/72/28 15/73/28
f 24/74/29 15/29/29 14/54/29
f 21/30/30 24/75/30 22/60/30 23/31/30
f 18/76/31 17/77/31 30/78/31 12/34/31
f 16/79/32 14/80/32 17/81/32 18/82/32 31/83/32
f 29/42/33 12/25/33 30/56/33
f 26/84/34 22/85/34 16/86/34 31/87/34 18/88/34 25/89/34
f 18/76/35 12/25/35 25/90/35
l 1 5
l 14 19
