# Blender v2.76 (sub 0) OBJ File: ''
# www.blender.org
mtllib plane.mtl
o Cube_Cube.001
v 4.325891 -0.157005 0.147395
v 0.000000 -0.157005 8.169840
v -0.000000 -0.157005 -2.384752
v 5.253255 -0.157005 -2.384752
v -0.000000 0.942028 -1.310375
v -4.325891 -0.157005 0.147395
v -5.253255 -0.157005 -2.384751
vt 0.000000 0.000000
vt 1.000000 0.000000
vt 1.000000 1.000000
vt 0.000000 1.000000
vn -0.000000 -1.000000 -0.000000
vn 0.000000 0.699000 -0.715100
vn 0.208900 0.971400 0.112600
vn 0.219900 0.972200 0.080500
vn 1.000000 -0.000000 -0.000000
vn -0.208900 0.971400 0.112600
vn -0.219900 0.972200 0.080500
usemtl Material.001
s off
f 1/1/1 2/2/1 3/3/1 4/4/1
f 3/1/2 5/2/2 4/3/2
f 1/1/3 5/2/3 2/3/3
f 5/1/4 1/2/4 4/3/4
f 6/1/1 7/4/1 3/3/1 2/2/1
f 3/1/2 7/3/2 5/2/2
f 2/1/5 3/3/5 5/2/5
f 6/1/6 2/3/6 5/2/6
f 5/1/7 7/3/7 6/2/7
