# Blender v2.78 (sub 0) OBJ File: 'plane.blend'
# www.blender.org
mtllib plane.mtl
o Cube_Cube.001
v -1.344685 0.561430 -3.890443
v -3.630091 0.189478 -4.006209
v -1.401264 0.621971 -1.471742
v -3.539809 0.140921 -0.117245
v -1.331984 0.591700 -2.672974
v -0.672342 0.375454 -4.525569
v -0.672342 0.715191 -4.284883
v -0.844597 0.251469 -0.891152
v -0.851718 0.313461 -3.133791
v -1.248008 0.405724 0.515067
v -4.128009 0.165199 -2.495461
v 0.000000 0.189477 4.260186
v -0.000000 -0.006193 -4.482877
v 1.344685 0.561430 -3.890443
v -0.000000 1.548427 -3.773014
v 3.630091 0.189477 -4.006209
v 1.401264 0.621971 -1.471742
v 3.539809 0.140921 -0.117246
v 1.331984 0.591700 -2.672974
v 0.000000 1.377963 -1.285225
v -0.000000 0.868952 -4.510567
v 0.672342 0.375453 -4.525569
v -0.000000 0.431380 -4.703695
v 0.672342 0.715191 -4.284883
v 0.844597 0.251469 -0.891152
v 0.851718 0.313461 -3.133792
v 0.000000 -0.018816 1.345832
v -0.000000 -0.222620 -2.504982
v 0.000000 0.900863 1.348026
v 1.248008 0.405724 0.515067
v 4.128009 0.165199 -2.495461
vt 0.2701 0.9071
vt 0.3254 0.9787
vt 0.0439 0.9148
vt 0.4286 0.8987
vt 0.2723 0.6374
vt 0.4286 0.6210
vt 0.2840 0.4157
vt 0.4188 0.3263
vt 0.4045 0.9795
vt 0.3371 0.9527
vt 0.7593 0.0180
vt 0.8334 0.0252
vt 0.8334 0.2461
vt 0.7398 0.1727
vt 0.7357 0.4228
vt 0.8171 0.6751
vt 0.8034 0.9997
vt 0.8226 0.0000
vt 0.3897 1.0000
vt 0.0596 0.4812
vt 0.4020 0.0000
vt 0.0000 0.7453
vt 0.4787 0.5013
vt 0.4286 0.2344
vt 0.4799 0.0674
vt 0.2701 0.9071
vt 0.0439 0.9148
vt 0.3254 0.9787
vt 0.2723 0.6374
vt 0.2840 0.4157
vt 0.3371 0.9527
vt 0.7593 0.0180
vt 0.7398 0.1727
vt 0.7357 0.4228
vt 0.9278 0.0182
vt 0.8832 0.0000
vt 0.8414 0.0279
vt 0.8334 0.2497
vt 0.8797 0.6766
vt 0.9200 0.9993
vt 0.9707 0.6698
vt 1.0000 0.3732
vt 1.0000 0.0950
vt 0.0596 0.4812
vt 0.0000 0.7453
vt 0.4799 0.0674
vt 0.4286 0.2344
vt 0.4787 0.5013
vn -0.1274 0.9074 -0.4005
vn -0.5369 0.8436 0.0127
vn -0.4679 0.8716 0.1463
vn -0.3679 0.6839 -0.6300
vn -0.4815 -0.8710 -0.0976
vn -0.5213 0.4933 -0.6963
vn -0.5209 -0.8533 -0.0219
vn -0.4176 -0.9074 0.0480
vn -0.4529 -0.8893 0.0636
vn -0.1952 -0.4419 -0.8756
vn -0.4717 0.7055 -0.5289
vn -0.3204 0.4616 -0.8272
vn -0.1438 0.9835 0.1094
vn -0.1671 0.9859 0.0009
vn -0.4777 0.8534 0.2085
vn 0.0425 -0.9989 -0.0214
vn 0.0358 -0.9992 -0.0179
vn 0.1274 0.9074 -0.4005
vn 0.5369 0.8436 0.0127
vn 0.4679 0.8716 0.1463
vn 0.3679 0.6839 -0.6300
vn 0.4815 -0.8710 -0.0976
vn 0.5213 0.4933 -0.6963
vn 0.5209 -0.8533 -0.0219
vn 0.4176 -0.9074 0.0480
vn 0.4529 -0.8893 0.0636
vn 0.1952 -0.4419 -0.8756
vn -1.0000 0.0000 0.0000
vn 0.4717 0.7055 -0.5289
vn 0.3204 0.4616 -0.8272
vn 0.1438 0.9835 0.1094
vn 0.1671 0.9859 0.0009
vn 0.4777 0.8534 0.2085
vn -0.0425 -0.9989 -0.0214
vn -0.0358 -0.9992 -0.0179
usemtl Material.001
s off
f 1/1/1 6/2/1 2/3/1
f 15/4/2 1/1/2 3/5/2 20/6/2
f 3/5/3 10/7/3 29/8/3 20/6/3
f 15/4/4 21/9/4 7/10/4
f 6/11/5 13/12/5 28/13/5 9/14/5
f 1/1/6 7/10/6 6/2/6
f 9/14/7 28/13/7 8/15/7
f 28/13/8 27/16/8 8/15/8
f 8/15/9 27/16/9 12/17/9
f 13/12/10 6/11/10 23/18/10
f 7/10/11 1/1/11 15/4/11
f 21/9/12 23/19/12 6/2/12 7/10/12
f 4/20/13 12/21/13 10/7/13 3/5/13
f 2/3/14 11/22/14 4/20/14 3/5/14 1/1/14
f 29/8/15 10/7/15 12/21/15
f 9/14/16 8/15/16 4/23/16 11/24/16 2/25/16 6/11/16
f 4/23/17 8/15/17 12/17/17
f 14/26/18 16/27/18 22/28/18
f 15/4/19 20/6/19 17/29/19 14/26/19
f 17/29/20 20/6/20 29/8/20 30/30/20
f 15/4/21 24/31/21 21/9/21
f 22/32/22 26/33/22 28/13/22 13/12/22
f 14/26/23 22/28/23 24/31/23
f 26/33/24 25/34/24 28/13/24
f 28/13/25 25/34/25 27/16/25
f 25/34/26 12/17/26 27/16/26
f 13/12/27 23/18/27 22/32/27
f 21/35/28 23/36/28 13/37/28 28/38/28 27/39/28 12/40/28 29/41/28 20/42/28 15/43/28
f 24/31/29 15/4/29 14/26/29
f 21/9/30 24/31/30 22/28/30 23/19/30
f 18/44/31 17/29/31 30/30/31 12/21/31
f 16/27/32 14/26/32 17/29/32 18/44/32 31/45/32
f 29/8/33 12/21/33 30/30/33
f 26/33/34 22/32/34 16/46/34 31/47/34 18/48/34 25/34/34
f 18/48/35 12/17/35 25/34/35
l 1 5
l 14 19
