# Blender v2.76 (sub 0) OBJ File: 'plane.blend'
# www.blender.org
mtllib plane.mtl
o Cube_Cube.001
v -20.170271 3.570697 -23.879696
v -54.026859 -2.018887 27.693811
v -60.967457 -2.008586 -25.616184
v -19.789248 4.478815 17.270012
v -59.613220 -2.013736 5.222292
v -19.979757 4.024756 -5.617667
v -10.085136 0.781054 -33.406590
v -10.085136 5.877115 -29.796307
v 0.000004 -2.008589 98.379738
v -0.000002 -4.943641 -32.766209
v 20.170271 3.570695 -23.879696
v -0.000000 18.375656 -22.118267
v 54.026859 -2.018892 27.693808
v 60.967457 -2.008591 -25.616188
v 19.789251 4.478813 17.270012
v 59.613220 -2.013742 5.222287
v 19.979757 4.024754 -5.617669
v 0.000002 15.818690 20.067764
v -0.000001 8.183534 -35.712921
v 10.085135 0.781053 -33.406590
v -0.000002 1.619947 -38.693218
v 10.085135 5.877114 -29.796307
vt 0.000000 0.000000
vt 0.500000 0.000000
vt 1.000000 0.000000
vt 1.000000 0.500000
vt 1.000000 0.750000
vt 1.000000 1.000000
vt 0.500000 0.250000
vt 0.000000 0.500000
vn -1.000000 0.000000 0.000000
vn -0.109100 0.916900 -0.383900
vn -0.502100 0.863200 0.052300
vn -0.151200 0.981700 0.115400
vn -0.164200 0.986400 0.011100
vn -0.589400 0.807800 -0.011100
vn -0.143500 0.989600 -0.004500
vn -0.590900 0.806600 -0.013900
vn -0.508200 0.839700 0.191200
vn -0.471700 0.705500 -0.528900
vn -0.494500 -0.869000 0.019400
vn 0.037200 -0.999100 -0.018300
vn -0.445700 -0.174500 -0.878000
vn -0.521300 0.493300 -0.696300
vn -0.532300 0.350000 -0.770800
vn 0.109100 0.916900 -0.383900
vn 0.502100 0.863200 0.052300
vn 0.151200 0.981700 0.115400
vn 0.164200 0.986400 0.011100
vn 0.589400 0.807800 -0.011100
vn 0.143500 0.989600 -0.004500
vn 0.590900 0.806600 -0.013900
vn 0.508200 0.839700 0.191200
vn 0.471700 0.705500 -0.528900
vn 0.494500 -0.869000 0.019400
vn -0.037200 -0.999100 -0.018300
vn 0.445700 -0.174500 -0.878000
vn 0.521300 0.493300 -0.696300
vn 0.532300 0.350000 -0.770800
usemtl Material.001
s off
f 9/1/1 18/2/1 12/3/1 19/4/1 21/5/1 10/6/1
usemtl Material.001_NONE
f 1/7/2 7/1/2 3/6/2
f 18/1/3 12/3/3 4/1/3
f 4/1/4 2/2/4 9/3/4
f 4/1/5 6/1/5 5/1/5 2/1/5
f 4/1/6 12/3/6 6/1/6
f 5/1/7 6/1/7 1/6/7 3/8/7
f 1/1/8 6/3/8 12/4/8
f 4/3/9 9/2/9 18/1/9
f 12/4/10 19/4/10 8/7/10 1/1/10
f 7/1/11 10/1/11 9/1/11
f 7/1/12 9/1/12 2/2/12 5/1/12 3/8/12
f 21/1/13 10/6/13 7/1/13 8/1/13
f 1/7/14 8/1/14 7/7/14
f 19/4/15 21/5/15 8/1/15
f 11/7/16 14/6/16 20/1/16
f 18/1/17 15/1/17 12/3/17
f 15/1/18 9/3/18 13/2/18
f 15/1/19 13/1/19 16/1/19 17/1/19
f 15/1/20 17/1/20 12/3/20
f 16/1/21 14/8/21 11/6/21 17/1/21
f 11/1/22 12/4/22 17/3/22
f 15/3/23 18/1/23 9/2/23
f 12/4/24 11/1/24 22/7/24 19/4/24
f 20/1/25 9/1/25 10/1/25
f 20/1/26 14/8/26 16/1/26 13/2/26 9/1/26
f 21/1/27 22/1/27 20/1/27 10/6/27
f 11/7/28 20/7/28 22/1/28
f 19/4/29 22/1/29 21/5/29
