# Blender v2.76 (sub 0) OBJ File: 'tetrahedron.blend'
# www.blender.org
mtllib tetrahedron.mtl
o Solid
v 0.000000 0.612525 0.000000
v 0.577494 -0.204175 0.000000
v -0.288747 -0.204175 -0.500125
v -0.288747 -0.204175 0.500125
vt 0.000000 0.000000
vt 1.000000 0.000000
vt 1.000000 1.000000
vn 0.471400 0.333300 -0.816500
vn -0.942800 0.333300 0.000000
vn 0.471400 0.333300 0.816500
vn 0.000000 -1.000000 0.000000
usemtl Material.001
s off
f 1/1/1 2/2/1 3/3/1
f 1/1/2 3/2/2 4/3/2
f 1/1/3 4/2/3 2/3/3
f 2/1/4 4/2/4 3/3/4
