# Blender v2.76 (sub 0) OBJ File: 'torus.blend'
# www.blender.org
mtllib torus.mtl
o Torus.002
v 1.000000 0.000000 0.000000
v 0.941421 -0.000000 0.141421
v 0.800000 -0.000000 0.200000
v 0.658579 -0.000000 0.141421
v 0.600000 -0.000000 0.000000
v 0.658579 0.000000 -0.141421
v 0.800000 0.000000 -0.200000
v 0.941421 0.000000 -0.141421
v 0.923880 0.382683 0.000000
v 0.869760 0.360266 0.141421
v 0.739104 0.306147 0.200000
v 0.608447 0.252027 0.141421
v 0.554328 0.229610 0.000000
v 0.608447 0.252027 -0.141421
v 0.739104 0.306147 -0.200000
v 0.869760 0.360266 -0.141421
v 0.707107 0.707107 0.000000
v 0.665685 0.665685 0.141421
v 0.565685 0.565685 0.200000
v 0.465685 0.465685 0.141421
v 0.424264 0.424264 0.000000
v 0.465685 0.465685 -0.141421
v 0.565685 0.565685 -0.200000
v 0.665685 0.665685 -0.141421
v 0.382684 0.923879 0.000000
v 0.360266 0.869760 0.141421
v 0.306147 0.739104 0.200000
v 0.252027 0.608447 0.141421
v 0.229610 0.554328 0.000000
v 0.252027 0.608447 -0.141421
v 0.306147 0.739104 -0.200000
v 0.360266 0.869760 -0.141421
v 0.000000 1.000000 0.000000
v 0.000000 0.941421 0.141421
v 0.000000 0.800000 0.200000
v 0.000000 0.658579 0.141421
v 0.000000 0.600000 0.000000
v 0.000000 0.658579 -0.141421
v 0.000000 0.800000 -0.200000
v 0.000000 0.941421 -0.141421
v -0.382684 0.923880 0.000000
v -0.360266 0.869760 0.141421
v -0.306147 0.739104 0.200000
v -0.252027 0.608447 0.141421
v -0.229610 0.554328 0.000000
v -0.252027 0.608447 -0.141421
v -0.306147 0.739104 -0.200000
v -0.360266 0.869760 -0.141421
v -0.707107 0.707107 0.000000
v -0.665686 0.665685 0.141421
v -0.565686 0.565685 0.200000
v -0.465686 0.465685 0.141421
v -0.424264 0.424264 0.000000
v -0.465686 0.465685 -0.141421
v -0.565686 0.565685 -0.200000
v -0.665686 0.665685 -0.141421
v -0.923879 0.382683 0.000000
v -0.869760 0.360266 0.141421
v -0.739104 0.306147 0.200000
v -0.608447 0.252027 0.141421
v -0.554328 0.229610 0.000000
v -0.608447 0.252027 -0.141421
v -0.739104 0.306147 -0.200000
v -0.869760 0.360266 -0.141421
v -1.000000 0.000000 0.000000
v -0.941421 0.000000 0.141421
v -0.800000 0.000000 0.200000
v -0.658579 0.000000 0.141421
v -0.600000 0.000000 0.000000
v -0.658579 0.000000 -0.141421
v -0.800000 0.000000 -0.200000
v -0.941421 0.000000 -0.141421
v -0.923880 -0.382683 -0.000000
v -0.869760 -0.360266 0.141421
v -0.739104 -0.306146 0.200000
v -0.608447 -0.252027 0.141421
v -0.554328 -0.229610 -0.000000
v -0.608447 -0.252027 -0.141421
v -0.739104 -0.306146 -0.200000
v -0.869760 -0.360266 -0.141421
v -0.707107 -0.707107 -0.000000
v -0.665686 -0.665685 0.141421
v -0.565686 -0.565685 0.200000
v -0.465686 -0.465685 0.141421
v -0.424264 -0.424264 -0.000000
v -0.465686 -0.465685 -0.141421
v -0.565686 -0.565685 -0.200000
v -0.665686 -0.665685 -0.141421
v -0.382684 -0.923880 -0.000000
v -0.360266 -0.869760 0.141421
v -0.306147 -0.739104 0.200000
v -0.252027 -0.608447 0.141421
v -0.229610 -0.554328 -0.000000
v -0.252027 -0.608447 -0.141421
v -0.306147 -0.739104 -0.200000
v -0.360266 -0.869760 -0.141421
v 0.000000 -1.000000 -0.000000
v 0.000000 -0.941421 0.141421
v 0.000000 -0.800000 0.200000
v 0.000000 -0.658579 0.141421
v 0.000000 -0.600000 -0.000000
v 0.000000 -0.658579 -0.141421
v 0.000000 -0.800000 -0.200000
v 0.000000 -0.941421 -0.141421
v 0.382684 -0.923879 -0.000000
v 0.360266 -0.869760 0.141421
v 0.306147 -0.739104 0.200000
v 0.252027 -0.608447 0.141421
v 0.229610 -0.554328 -0.000000
v 0.252027 -0.608447 -0.141421
v 0.306147 -0.739104 -0.200000
v 0.360266 -0.869760 -0.141421
v 0.707106 -0.707107 -0.000000
v 0.665685 -0.665686 0.141421
v 0.565685 -0.565686 0.200000
v 0.465685 -0.465686 0.141421
v 0.424264 -0.424264 -0.000000
v 0.465685 -0.465686 -0.141421
v 0.565685 -0.565686 -0.200000
v 0.665685 -0.665686 -0.141421
v 0.923879 -0.382684 -0.000000
v 0.869760 -0.360267 0.141421
v 0.739103 -0.306147 0.200000
v 0.608447 -0.252027 0.141421
v 0.554328 -0.229610 -0.000000
v 0.608447 -0.252027 -0.141421
v 0.739103 -0.306147 -0.200000
v 0.869760 -0.360267 -0.141421
vt 0.000000 0.000000
vt 1.000000 0.000000
vt 1.000000 1.000000
vt 0.000000 1.000000
vn 0.908700 0.180700 0.376400
vn 0.381600 0.075900 0.921200
vn -0.381600 -0.075900 0.921200
vn -0.908700 -0.180700 0.376400
vn -0.908700 -0.180700 -0.376400
vn -0.381600 -0.075900 -0.921200
vn 0.381600 0.075900 -0.921200
vn 0.908700 0.180700 -0.376400
vn 0.770300 0.514700 0.376400
vn 0.323500 0.216100 0.921200
vn -0.323500 -0.216100 0.921200
vn -0.770300 -0.514700 0.376400
vn -0.770300 -0.514700 -0.376400
vn -0.323500 -0.216100 -0.921200
vn 0.323500 0.216100 -0.921200
vn 0.770300 0.514700 -0.376400
vn 0.514700 0.770300 0.376400
vn 0.216100 0.323500 0.921200
vn -0.216100 -0.323500 0.921200
vn -0.514700 -0.770300 0.376400
vn -0.514700 -0.770300 -0.376400
vn -0.216100 -0.323500 -0.921200
vn 0.216100 0.323500 -0.921200
vn 0.514700 0.770300 -0.376400
vn 0.180700 0.908700 0.376400
vn 0.075900 0.381600 0.921200
vn -0.075900 -0.381600 0.921200
vn -0.180700 -0.908700 0.376400
vn -0.180700 -0.908700 -0.376400
vn -0.075900 -0.381600 -0.921200
vn 0.075900 0.381600 -0.921200
vn 0.180700 0.908700 -0.376400
vn -0.180700 0.908700 0.376400
vn -0.075900 0.381600 0.921200
vn 0.075900 -0.381600 0.921200
vn 0.180700 -0.908700 0.376400
vn 0.180700 -0.908700 -0.376400
vn 0.075900 -0.381600 -0.921200
vn -0.075900 0.381600 -0.921200
vn -0.180700 0.908700 -0.376400
vn -0.514700 0.770300 0.376400
vn -0.216100 0.323500 0.921200
vn 0.216100 -0.323500 0.921200
vn 0.514700 -0.770300 0.376400
vn 0.514700 -0.770300 -0.376400
vn 0.216100 -0.323500 -0.921200
vn -0.216100 0.323500 -0.921200
vn -0.514700 0.770300 -0.376400
vn -0.770300 0.514700 0.376400
vn -0.323500 0.216100 0.921200
vn 0.323500 -0.216100 0.921200
vn 0.770300 -0.514700 0.376400
vn 0.770300 -0.514700 -0.376400
vn 0.323500 -0.216100 -0.921200
vn -0.323500 0.216100 -0.921200
vn -0.770300 0.514700 -0.376400
vn -0.908700 0.180700 0.376400
vn -0.381600 0.075900 0.921200
vn 0.381600 -0.075900 0.921200
vn 0.908700 -0.180700 0.376400
vn 0.908700 -0.180700 -0.376400
vn 0.381600 -0.075900 -0.921200
vn -0.381600 0.075900 -0.921200
vn -0.908700 0.180700 -0.376400
usemtl Material
s off
f 1/1/1 9/2/1 10/3/1 2/4/1
f 2/1/2 10/2/2 11/3/2 3/4/2
f 3/1/3 11/2/3 12/3/3 4/4/3
f 4/1/4 12/2/4 13/3/4 5/4/4
f 5/1/5 13/2/5 14/3/5 6/4/5
f 6/1/6 14/2/6 15/3/6 7/4/6
f 7/1/7 15/2/7 16/3/7 8/4/7
f 1/1/8 8/2/8 16/3/8 9/4/8
f 9/1/9 17/2/9 18/3/9 10/4/9
f 10/1/10 18/2/10 19/3/10 11/4/10
f 11/1/11 19/2/11 20/3/11 12/4/11
f 12/1/12 20/2/12 21/3/12 13/4/12
f 13/1/13 21/2/13 22/3/13 14/4/13
f 14/1/14 22/2/14 23/3/14 15/4/14
f 15/1/15 23/2/15 24/3/15 16/4/15
f 16/1/16 24/2/16 17/3/16 9/4/16
f 17/1/17 25/2/17 26/3/17 18/4/17
f 18/1/18 26/2/18 27/3/18 19/4/18
f 19/1/19 27/2/19 28/3/19 20/4/19
f 20/1/20 28/2/20 29/3/20 21/4/20
f 21/1/21 29/2/21 30/3/21 22/4/21
f 22/1/22 30/2/22 31/3/22 23/4/22
f 23/1/23 31/2/23 32/3/23 24/4/23
f 24/1/24 32/2/24 25/3/24 17/4/24
f 25/1/25 33/2/25 34/3/25 26/4/25
f 26/1/26 34/2/26 35/3/26 27/4/26
f 27/1/27 35/2/27 36/3/27 28/4/27
f 28/1/28 36/2/28 37/3/28 29/4/28
f 29/1/29 37/2/29 38/3/29 30/4/29
f 30/1/30 38/2/30 39/3/30 31/4/30
f 31/1/31 39/2/31 40/3/31 32/4/31
f 32/1/32 40/2/32 33/3/32 25/4/32
f 33/1/33 41/2/33 42/3/33 34/4/33
f 34/1/34 42/2/34 43/3/34 35/4/34
f 35/1/35 43/2/35 44/3/35 36/4/35
f 36/1/36 44/2/36 45/3/36 37/4/36
f 37/1/37 45/2/37 46/3/37 38/4/37
f 38/1/38 46/2/38 47/3/38 39/4/38
f 39/1/39 47/2/39 48/3/39 40/4/39
f 40/1/40 48/2/40 41/3/40 33/4/40
f 41/1/41 49/2/41 50/3/41 42/4/41
f 42/1/42 50/2/42 51/3/42 43/4/42
f 43/1/43 51/2/43 52/3/43 44/4/43
f 44/1/44 52/2/44 53/3/44 45/4/44
f 45/1/45 53/2/45 54/3/45 46/4/45
f 46/1/46 54/2/46 55/3/46 47/4/46
f 47/1/47 55/2/47 56/3/47 48/4/47
f 48/1/48 56/2/48 49/3/48 41/4/48
f 49/1/49 57/2/49 58/3/49 50/4/49
f 50/1/50 58/2/50 59/3/50 51/4/50
f 51/1/51 59/2/51 60/3/51 52/4/51
f 52/1/52 60/2/52 61/3/52 53/4/52
f 53/1/53 61/2/53 62/3/53 54/4/53
f 54/1/54 62/2/54 63/3/54 55/4/54
f 55/1/55 63/2/55 64/3/55 56/4/55
f 56/1/56 64/2/56 57/3/56 49/4/56
f 57/1/57 65/2/57 66/3/57 58/4/57
f 58/1/58 66/2/58 67/3/58 59/4/58
f 59/1/59 67/2/59 68/3/59 60/4/59
f 60/1/60 68/2/60 69/3/60 61/4/60
f 61/1/61 69/2/61 70/3/61 62/4/61
f 62/1/62 70/2/62 71/3/62 63/4/62
f 63/1/63 71/2/63 72/3/63 64/4/63
f 64/1/64 72/2/64 65/3/64 57/4/64
f 65/1/4 73/2/4 74/3/4 66/4/4
f 66/1/3 74/2/3 75/3/3 67/4/3
f 67/1/2 75/2/2 76/3/2 68/4/2
f 68/1/1 76/2/1 77/3/1 69/4/1
f 69/1/8 77/2/8 78/3/8 70/4/8
f 70/1/7 78/2/7 79/3/7 71/4/7
f 71/1/6 79/2/6 80/3/6 72/4/6
f 72/1/5 80/2/5 73/3/5 65/4/5
f 73/1/12 81/2/12 82/3/12 74/4/12
f 74/1/11 82/2/11 83/3/11 75/4/11
f 75/1/10 83/2/10 84/3/10 76/4/10
f 76/1/9 84/2/9 85/3/9 77/4/9
f 77/1/16 85/2/16 86/3/16 78/4/16
f 78/1/15 86/2/15 87/3/15 79/4/15
f 79/1/14 87/2/14 88/3/14 80/4/14
f 80/1/13 88/2/13 81/3/13 73/4/13
f 81/1/20 89/2/20 90/3/20 82/4/20
f 82/1/19 90/2/19 91/3/19 83/4/19
f 83/1/18 91/2/18 92/3/18 84/4/18
f 84/1/17 92/2/17 93/3/17 85/4/17
f 85/1/24 93/2/24 94/3/24 86/4/24
f 86/1/23 94/2/23 95/3/23 87/4/23
f 87/1/22 95/2/22 96/3/22 88/4/22
f 88/1/21 96/2/21 89/3/21 81/4/21
f 89/1/28 97/2/28 98/3/28 90/4/28
f 90/1/27 98/2/27 99/3/27 91/4/27
f 91/1/26 99/2/26 100/3/26 92/4/26
f 92/1/25 100/2/25 101/3/25 93/4/25
f 93/1/32 101/2/32 102/3/32 94/4/32
f 94/1/31 102/2/31 103/3/31 95/4/31
f 95/1/30 103/2/30 104/3/30 96/4/30
f 96/1/29 104/2/29 97/3/29 89/4/29
f 97/1/36 105/2/36 106/3/36 98/4/36
f 98/1/35 106/2/35 107/3/35 99/4/35
f 99/1/34 107/2/34 108/3/34 100/4/34
f 100/1/33 108/2/33 109/3/33 101/4/33
f 101/1/40 109/2/40 110/3/40 102/4/40
f 102/1/39 110/2/39 111/3/39 103/4/39
f 103/1/38 111/2/38 112/3/38 104/4/38
f 104/1/37 112/2/37 105/3/37 97/4/37
f 105/1/44 113/2/44 114/3/44 106/4/44
f 106/1/43 114/2/43 115/3/43 107/4/43
f 107/1/42 115/2/42 116/3/42 108/4/42
f 108/1/41 116/2/41 117/3/41 109/4/41
f 109/1/48 117/2/48 118/3/48 110/4/48
f 110/1/47 118/2/47 119/3/47 111/4/47
f 111/1/46 119/2/46 120/3/46 112/4/46
f 112/1/45 120/2/45 113/3/45 105/4/45
f 113/1/52 121/2/52 122/3/52 114/4/52
f 114/1/51 122/2/51 123/3/51 115/4/51
f 115/1/50 123/2/50 124/3/50 116/4/50
f 116/1/49 124/2/49 125/3/49 117/4/49
f 117/1/56 125/2/56 126/3/56 118/4/56
f 118/1/55 126/2/55 127/3/55 119/4/55
f 119/1/54 127/2/54 128/3/54 120/4/54
f 120/1/53 128/2/53 121/3/53 113/4/53
f 121/1/60 1/2/60 2/3/60 122/4/60
f 122/1/59 2/2/59 3/3/59 123/4/59
f 123/1/58 3/2/58 4/3/58 124/4/58
f 124/1/57 4/2/57 5/3/57 125/4/57
f 125/1/64 5/2/64 6/3/64 126/4/64
f 126/1/63 6/2/63 7/3/63 127/4/63
f 127/1/62 7/2/62 8/3/62 128/4/62
f 128/1/61 8/2/61 1/3/61 121/4/61
